# xmcd
#
# Track frame offsets: 
#        150
#        23085
#        40970
#        64370
#        68772
#        89893
#        114756
#        129419
#        147530
#        154835
#        168322
#        191730
#        210375
#        223571
#        234353
#
# Disc length: 3466 seconds
#
# Revision: 1
# Processed by: cddbd v1.5.2PL0 Copyright (c) Steve Scherf et al.
# Submitted via: ExactAudioCopy v0.95b4
#
DISCID=d80d880f
DTITLE=Alain Mayeras Trio - Tenderly
DYEAR=2000
DGENRE=Jazz
TTITLE0=Secret Love <P. F. Webster, S. Fain>
TTITLE1=The More I See You <H. Warren, M. Gordon>
TTITLE2=Whisper Not <B. Golson>
TTITLE3=Si Douce <A. Mayeras>
TTITLE4=No Bass <G. Naturel>
TTITLE5=N'oublie Pas <A. Mayeras>
TTITLE6=Invention n#4 <J. S. Bach> - aBachadabra <A. Mayeras>
TTITLE7=Blues For Jezebel <G. Harris>
TTITLE8=Le Theme De Camille <G. Delerue>
TTITLE9=Fly Me To The Moon <B. Howard>
TTITLE10=Come Closer <A. Mayeras>
TTITLE11=Hank's Mood <A. Mayeras>
TTITLE12=Tenderly <J. Lawrence, W. Gross>
TTITLE13=June In Paris <A. Mayeras>
TTITLE14=N'oublie Pas - Take2 <A. Mayeras>
EXTD=YEAR: 2000
EXTT0=
EXTT1=
EXTT2=
EXTT3=
EXTT4=
EXTT5=
EXTT6=
EXTT7=
EXTT8=
EXTT9=
EXTT10=
EXTT11=
EXTT12=
EXTT13=
EXTT14=
PLAYORDER=
